<svg width="306" height="306" viewBox="0 0 306 306" fill="none" xmlns="http://www.w3.org/2000/svg">
<path d="M305.244 0C305.244 168.723 168.581 305.5 -3.05176e-05 305.5C-168.581 305.5 -305.244 168.723 -305.244 0C-305.244 -168.723 -168.581 -305.5 -3.05176e-05 -305.5C168.581 -305.5 305.244 -168.723 305.244 0ZM272.851 -0.405426C272.851 150.368 150.625 272.595 -0.149109 272.595C-150.923 272.595 -273.149 150.368 -273.149 -0.405426C-273.149 -151.179 -150.923 -273.405 -0.149109 -273.405C150.625 -273.405 272.851 -151.179 272.851 -0.405426ZM-0.149109 273.595C151.177 273.595 273.851 150.921 273.851 -0.405426C273.851 -151.731 151.177 -274.405 -0.149109 -274.405C-151.475 -274.405 -274.149 -151.731 -274.149 -0.405426C-274.149 150.921 -151.475 273.595 -0.149109 273.595ZM236.567 -4.18918C236.567 128.635 128.892 236.311 -3.93286 236.311C-136.757 236.311 -244.433 128.635 -244.433 -4.18918C-244.433 -137.014 -136.757 -244.689 -3.93286 -244.689C128.892 -244.689 236.567 -137.014 236.567 -4.18918ZM-3.93286 237.311C129.444 237.311 237.567 129.188 237.567 -4.18918C237.567 -137.566 129.444 -245.689 -3.93286 -245.689C-137.31 -245.689 -245.433 -137.566 -245.433 -4.18918C-245.433 129.188 -137.31 237.311 -3.93286 237.311ZM196.905 -11.3513C196.905 103.524 103.78 196.649 -11.0949 196.649C-125.97 196.649 -219.095 103.524 -219.095 -11.3513C-219.095 -126.227 -125.97 -219.351 -11.0949 -219.351C103.78 -219.351 196.905 -126.227 196.905 -11.3513ZM-11.0949 197.649C104.333 197.649 197.905 104.076 197.905 -11.3513C197.905 -126.779 104.333 -220.351 -11.0949 -220.351C-126.522 -220.351 -220.095 -126.779 -220.095 -11.3513C-220.095 104.076 -126.522 197.649 -11.0949 197.649Z" stroke="#3D3B30"/>
</svg>
