<svg width="376" height="429" viewBox="0 0 376 429" fill="none" xmlns="http://www.w3.org/2000/svg">
<path d="M308.231 126.183L303.482 121.434L0.665405 424.251L5.4142 429L308.231 126.183Z" fill="white"/>
<path d="M315.947 120.178L309.739 113.969L369.126 54.5821L375.335 60.7908L315.947 120.178Z" fill="url(#paint0_linear_7_3)"/>
<path d="M282.629 93.8321L275.674 88.9491L322.381 22.4189L329.336 27.3019L282.629 93.8321Z" fill="url(#paint1_linear_7_3)"/>
<path d="M252.639 73.3298L246.049 69.7772L280.031 6.74778L286.62 10.3004L252.639 73.3298Z" fill="url(#paint2_linear_7_3)"/>
<path d="M224.232 60.509L218.34 58.3681L238.818 2.00452L244.711 4.14543L224.232 60.509Z" fill="url(#paint3_linear_7_3)"/>
<path d="M196.413 51.5445L191.257 50.1723L204.382 0.857849L209.538 2.23001L196.413 51.5445Z" fill="url(#paint4_linear_7_3)"/>
<path d="M178.236 47.8882L173.743 47.4899L177.552 4.51415L182.045 4.91243L178.236 47.8882Z" fill="url(#paint5_linear_7_3)"/>
<path d="M156.082 42.7856H152.815V9.66049L156.082 9.61673V42.7856Z" fill="url(#paint6_linear_7_3)"/>
<path d="M137.134 39.8528L134.413 40.1822L131.073 12.5859L133.79 12.2201L137.134 39.8528Z" fill="url(#paint7_linear_7_3)"/>
<path d="M111.387 40.5638L113.044 39.9579L106.9 23.16L105.236 23.7436L111.387 40.5638Z" fill="url(#paint8_linear_7_3)"/>
<path d="M122.919 39.9579L125.259 39.482L120.432 15.7547L118.086 16.1993L122.919 39.9579Z" fill="url(#paint9_linear_7_3)"/>
<defs>
<linearGradient id="paint0_linear_7_3" x1="342.544" y1="76.7683" x2="130.942" y2="29.0161" gradientUnits="userSpaceOnUse">
<stop stop-color="#5FC675"/>
<stop offset="1" stop-color="#FF0000"/>
</linearGradient>
<linearGradient id="paint1_linear_7_3" x1="342.544" y1="76.7683" x2="130.942" y2="29.0161" gradientUnits="userSpaceOnUse">
<stop stop-color="#5FC675"/>
<stop offset="1" stop-color="#FF0000"/>
</linearGradient>
<linearGradient id="paint2_linear_7_3" x1="342.544" y1="76.7683" x2="130.942" y2="29.0161" gradientUnits="userSpaceOnUse">
<stop stop-color="#5FC675"/>
<stop offset="1" stop-color="#FF0000"/>
</linearGradient>
<linearGradient id="paint3_linear_7_3" x1="342.544" y1="76.7683" x2="130.942" y2="29.0161" gradientUnits="userSpaceOnUse">
<stop stop-color="#5FC675"/>
<stop offset="1" stop-color="#FF0000"/>
</linearGradient>
<linearGradient id="paint4_linear_7_3" x1="342.544" y1="76.7683" x2="130.942" y2="29.0161" gradientUnits="userSpaceOnUse">
<stop stop-color="#5FC675"/>
<stop offset="1" stop-color="#FF0000"/>
</linearGradient>
<linearGradient id="paint5_linear_7_3" x1="342.544" y1="76.7683" x2="130.942" y2="29.0161" gradientUnits="userSpaceOnUse">
<stop stop-color="#5FC675"/>
<stop offset="1" stop-color="#FF0000"/>
</linearGradient>
<linearGradient id="paint6_linear_7_3" x1="342.544" y1="76.7683" x2="130.942" y2="29.0161" gradientUnits="userSpaceOnUse">
<stop stop-color="#5FC675"/>
<stop offset="1" stop-color="#FF0000"/>
</linearGradient>
<linearGradient id="paint7_linear_7_3" x1="342.544" y1="76.7683" x2="130.942" y2="29.0161" gradientUnits="userSpaceOnUse">
<stop stop-color="#5FC675"/>
<stop offset="1" stop-color="#FF0000"/>
</linearGradient>
<linearGradient id="paint8_linear_7_3" x1="342.544" y1="76.7683" x2="130.942" y2="29.0161" gradientUnits="userSpaceOnUse">
<stop stop-color="#5FC675"/>
<stop offset="1" stop-color="#FF0000"/>
</linearGradient>
<linearGradient id="paint9_linear_7_3" x1="342.544" y1="76.7683" x2="130.942" y2="29.0161" gradientUnits="userSpaceOnUse">
<stop stop-color="#5FC675"/>
<stop offset="1" stop-color="#FF0000"/>
</linearGradient>
</defs>
</svg>
